<svg xmlns="http://www.w3.org/2000/svg" viewBox="0 0 64 64">
  <rect width="64" height="64" rx="14" fill="#226e4a"/>
  <path d="M14 40h36a2 2 0 0 1-2 4H16a2 2 0 0 1-2-4z" fill="#fff" opacity=".95"/>
  <path d="M12 36c0-9 9-14 20-14s20 5 20 14z" fill="#fff"/>
  <circle cx="24" cy="28" r="2.4" fill="#226e4a"/>
  <circle cx="32" cy="25" r="2.4" fill="#226e4a"/>
  <circle cx="40" cy="28" r="2.4" fill="#226e4a"/>
  <path d="M20 48h24v3a3 3 0 0 1-3 3H23a3 3 0 0 1-3-3z" fill="#fff" opacity=".7"/>
</svg>
